<?xml version="1.0" encoding="utf-8"?>
<!-- Generator: Adobe Illustrator 24.3.0, SVG Export Plug-In . SVG Version: 6.00 Build 0)  -->
<svg version="1.1" id="Capa_1" xmlns="http://www.w3.org/2000/svg" xmlns:xlink="http://www.w3.org/1999/xlink" x="0px" y="0px"
	 width="720px" height="720px" viewBox="0 0 720 720" style="enable-background:new 0 0 720 720;" xml:space="preserve">
<style type="text/css">
	.st0{fill:#FFFFFF;}
	.st1{clip-path:url(#SVGID_2_);}
	.st2{clip-path:url(#SVGID_2_);fill:#FF9E63;}
	.st3{fill:#FF9E63;}
</style>
<path class="st0" d="M664.6,360"/>
<g>
	<g>
		<defs>
			<circle id="SVGID_1_" cx="360" cy="360" r="360"/>
		</defs>
		<use xlink:href="#SVGID_1_"  style="overflow:visible;fill:#FF9E63;"/>
		<clipPath id="SVGID_2_">
			<use xlink:href="#SVGID_1_"  style="overflow:visible;"/>
		</clipPath>
		<path class="st1" d="M252.2,147.6c0.1,0.2,0.3,0.4,0.6,0.9C252.4,147.7,252.2,147.4,252.2,147.6z"/>
		<path class="st1" d="M247.2,163.1c-3.6-1.9-6-3.2-6-3.2C242.4,160.9,244.5,162,247.2,163.1z"/>
		<path class="st1" d="M665.3,282.8c1.9-28.6-24.9-39.8-29.1-47.3c-4.3-7.5-10.3-8.9-11.2-10.1c-0.9-1.2,1-3.5,1.6-7.5
			c0.5-4-1.3-4.3-5.3-7.2c-4-2.9-3.2-3.7-5.1-6.1c-1.9-2.4,0.3-4.5-3.2-9.1c-3.5-4.5-6.9-4.3-13.9-5.3c-6.9-1.1-2.1-4.5-8.3-7.2
			c-2.1-0.9-3.9-0.6-5.6,0.2c-1.8-1.5-3.7-2.9-5.6-4.4c0.3-0.9,0.6-1.6,1-1.9c1.6-1.5,5.6-2.2,8.3,0c1.2,1,4.1,2.8,6.7,4.3
			c-2.8-2.5-6.4-6-9.9-9.7c-4-4.2-10.7-1.8-15.6,0.7c-3.8-2.4-7.6-4.8-11.7-6.9c5.7-0.7,9.9-2.3,9.9-2.3c-5.9,0.9-10.6,0.8-14.4,0
			c-3.3-1.6-6.6-3.1-10-4.4c-5.7-4.3-9-10.1-14.6-13.3c-3-1.7-6.5-0.8-10,1.2c-16-12.8-36-7-43.6-4c-53.1-7.9-105.9-8.7-105.9-8.7
			c-9-2-16.4-1.5-22.4,0.4c-3.6-0.5-7.4-0.6-11.2,0.1c-6.5,1.1-12.4,3.6-17.4,7c-3.7,0-15.1,0.7-19.2,10.6c-0.7-0.7-1.8-2-3.3-3.2
			c1.2-2.8,2.8-5.4,4.9-7.4c0,0-2.9,2.6-6.2,6.4c-2.7-1.9-6.5-3.4-11.4-2.6c0,0,5.4,1.1,9.9,4.4c-1,1.2-1.9,2.4-2.8,3.7
			c-1.2,0.1-2.5,0.3-3.7,0.4c-0.7-0.6-1.3-1.1-1.5-1.3c-1.6-1.3-17.6-6.1-21.1-6.1c-3,0,11.9,1.8,20.3,7.7
			c-4.2,0.6-8.3,1.4-12.1,2.5c-6-2.6-11.6-5.7-12.8-8.3c-2.4-5.3-2.1,6.9,5.3,11c-1,0.4-1.9,0.9-2.7,1.3c-0.3-0.3-0.5-0.5-0.8-0.8
			c-3.9-5-7.6-9.1-9-10.9c1.4,2.3,5.1,8.6,8.3,12.6c-1.1,0.7-2.2,1.4-3.2,2.2c-4.1-4.7-8.3-9-11-10.6c-7.2-4-5.1-4.3,4.3,11.9
			c-1.4-0.5-2.7-1-4-1.4c1.3,0.7,2.9,1.5,4.5,2.4c0.5,0.9,1,1.7,1.4,2.4c-1.4,1.7-2.5,3.6-3.5,5.5c-2.5-2.5-5-4.3-7.1-4.7
			c-7.7-1.3-7.7,1.3-7.7,1.3s5.7,1.5,12,5.6c-3.9-0.1-7.7,0.6-10.7,2.9c-0.7,0.5-1.3,1.2-1.8,1.8c-2.8-0.5-5.6,0-7.8,2.2
			c-0.4,0.4-0.8,0.9-1.2,1.5c-1.6,0.4-3.2,1-4.7,1.7c-19.1,9.7-3.7,38.2,20.6,45.9c-1.6,7.6-6.7,17.3-9.1,25.7
			c-3.1,10.9-15.6,31.1-21,47.5c-5.4,16.3-7,14-3.1,21c3.9,7-2.3,28-7.8,32.7c-5.4,4.7-44.3,46.7-52.1,51.4
			c-7.8,4.7-18.7,27.2,0,38.9c18.7,11.7,26.5,8.6,24.9,16.3c-1.6,7.8-0.8,22.6-3.9,26.5c-3.1,3.9-5.4,6.2,0.8,10.9
			c6.2,4.7,14.8,3.1,8.6,9.3c-6.2,6.2-12.4,11.7-3.9,18.7c8.6,7,17.1,15.6,7,19.5c-10.1,3.9-15.6,35-10.9,49c4.7,14,23.3,21,46.7,21
			s60.7-3.1,81.7,28.8c21,31.9,57.6,117.5,57.6,117.5l294.9-59.9c0,0-70.8-76.2-76.2-101.1c-5.4-24.9-12.4-42.8,0-68.5
			c8.5-17.5,23.8-44.7,38.9-71.6c3.2-3.3,6.8-6.9,10.8-10.7c10.4-10,10.7-28.2,16.6-35.5s9.6-24.6,11.5-37.9
			c1.9-13.4,2.1-8.6,2.1-11.2c0-2.7-1.1-7.4,4.5-14.4c5.6-7.1,4-25.1,4.5-29.1c0.5-4-3.3-10-1.8-18.2c1.5-8.2-2-15.2-6.2-21.2
			c0,0,0,0,0,0c-0.5-2.2-1-4.5-1.5-6.6c0.5-4.4,3-8.8,3.3-11C658.7,265.9,665.3,282.8,665.3,282.8z M317.6,142c-2.6,1.9-4.9,4-7,6.2
			c0,0-0.1,0-0.1,0C311.8,145.7,314,143.5,317.6,142z M240.4,216.5c-2.3-2.3-6-6.1-8.7-10.8c0.9-2.5,2.4-5.1,4.9-7.8
			c1.3,2.3,2.9,4.6,4.6,6.7C240.5,207.6,240.2,211.9,240.4,216.5z M295.5,150.8c0.5,0.5,1,1,1.5,1.6c-0.7,0-1.4,0.1-2.1,0.1
			C295.1,152,295.3,151.4,295.5,150.8z M295,158.7c-0.1,0-0.2,0.1-0.3,0.1c-0.1,0-0.1-0.1-0.2-0.1
			C294.6,158.7,294.8,158.7,295,158.7z M287.1,159.3c-0.3,0.7-0.6,1.3-0.8,2c-1.1-0.3-2.4-0.8-3.9-1.3
			C283.9,159.7,285.5,159.5,287.1,159.3z M273.4,162.3c2.7,1,5.4,1.9,7.8,2.7c-0.6,0.3-1.2,0.7-1.8,1c-3.1-0.5-6.6-1.3-9.7-2.3
			C270.9,163.2,272.1,162.7,273.4,162.3z M266.9,174.3c-0.5-0.6-1-1.2-1.5-1.9c0.8,0.4,1.6,0.8,2.4,1.2
			C267.5,173.8,267.2,174.1,266.9,174.3z M265.1,166c0.6,0.9,1.1,1.9,1.6,2.9c-1.4-0.4-2.9-0.7-4.4-1.1
			C263.2,167.2,264.1,166.6,265.1,166z M256.3,173.1c1.4,2.2,2.5,4,3.5,5.5c-2-0.7-4.1-1.4-6.3-1.9
			C254.3,175.4,255.3,174.2,256.3,173.1z M228.1,192.1c1.7-0.4,3.6-0.5,5.6-0.5c0.2,0.5,0.3,0.9,0.5,1.4c-2.2,2.2-4,4.5-5.1,7
			c-0.3-0.8-0.5-1.5-0.7-2.3C227.9,195.6,227.8,193.7,228.1,192.1z M241.5,230.5c-8.6-4.4-23.9-14.5-21.6-29.8
			c0.4-2.9,1.7-5,3.5-6.5c0.4,3.9,1.9,8.2,4.3,12c-0.1,3.2,0.9,6.5,3,10.1c0,0-0.7-2.5-0.1-6.2c2.7,3.1,6,5.8,10,7.5
			c0.2,2.6,0.5,5.2,1,7.7C241.8,226.9,241.8,228.7,241.5,230.5z M242.5,201.5c-1.2-2.4-2-4.8-2.1-7.2c0.6-0.5,1.3-1,1.9-1.4
			c1.1,0.3,2.2,0.5,3.2,0.8c0,0.9,0.1,1.8,0.1,2.6C244.3,198.4,243.2,200.2,242.5,201.5z M247,194.5c0-0.1,0-0.3,0-0.4
			c0.1,0,0.1,0,0.2,0.1C247.2,194.3,247.1,194.4,247,194.5z M251.6,187.9c0.4-0.2,0.8-0.3,1.2-0.5c-0.2,0.2-0.4,0.5-0.7,0.7
			C251.9,188.1,251.7,188,251.6,187.9z M324.8,150c-6.8,1.7-7.3,0.8-11.6,1.9c-0.5-0.2-1-0.4-1.5-0.6c1.8-1.7,3.9-3.4,6.2-4.9
			c4.1-1,7.2-1.7,7.2-1.7c-0.9-0.4-1.8-0.6-2.7-0.7c3.6-1.6,7.7-2.6,12.3-2.6c-2.9,2.5-5.1,5.3-6.8,7.8
			C326.8,149.4,325.7,149.7,324.8,150z M328.6,148.9c2.6-3.3,5.6-5.8,8.7-7.6c2.6,0.2,5.4,0.7,8.4,1.7
			C339.5,145.3,333.3,147.5,328.6,148.9z M360,137.6c-0.2-0.1-0.3-0.1-0.5-0.2c0.3,0,0.6,0,0.9,0.1
			C360.2,137.5,360.1,137.5,360,137.6z M514.8,149.7c-9-2.1-18.5-4-28-5.6c13.9-3.6,24.2-0.8,31.1,3.2
			C516.8,148,515.8,148.8,514.8,149.7z M518.8,150.7c0.6-0.5,1.3-1,2-1.4c1.3,1,2.5,1.9,3.5,2.8
			C522.5,151.6,520.7,151.1,518.8,150.7z M525.5,152.4c-1.1-1.4-2.3-2.6-3.4-3.7c1.2-0.5,2.4-0.8,3.8-0.8c5.6-0.1,4.7,2.7,6.4,6.5
			C530,153.7,527.8,153,525.5,152.4z"/>
		<path class="st1" d="M595.6,181.1c2.2,2,3.9,3.2,4.8,3.4C601.4,184.6,598.7,183,595.6,181.1z"/>
		<polygon class="st2" points="442.4,261.6 395.6,261.6 359.2,316 394,316 374.8,364 453.2,304.4 411.2,304.4 		"/>
		<g class="st1">
			<path class="st3" d="M294.9,313l38.8,15.7v12.1L283,317.3v-9l50.7-23.4V297L294.9,313z"/>
			<path class="st3" d="M517.5,312.6l-41-16v-11.8l52.9,23.4v9l-52.9,23.5v-11.9L517.5,312.6z"/>
		</g>
	</g>
</g>
</svg>
